HIERARCHY
ROOT Hips
{
	OFFSET 0.000000 0.000000 0.000000
	CHANNELS 6 Xposition Yposition Zposition Xrotation Yrotation Zrotation
	JOINT LeftUpLeg_virtual
	{
		OFFSET 0.000000 0.000000 0.000000
		CHANNELS 3 Xrotation Yrotation Zrotation
		JOINT LeftUpLeg
		{
			OFFSET 15.427100 -6.655098 0.678600
			CHANNELS 3 Xrotation Yrotation Zrotation
			JOINT LeftLeg
			{
				OFFSET 4.081073 -39.591068 13.024000
				CHANNELS 3 Xrotation Yrotation Zrotation
				JOINT LeftFoot
				{
					OFFSET -4.081074 -37.707932 -15.979700
					CHANNELS 3 Xrotation Yrotation Zrotation
					JOINT LeftToeBase
					{
						OFFSET 5.346399 -15.068900 20.645000
						CHANNELS 3 Xrotation Yrotation Zrotation
						JOINT LeftToe_End
						{
							OFFSET 2.754700 0.931300 11.300900
							CHANNELS 3 Xrotation Yrotation Zrotation
							End Site
							{
								OFFSET 0 0 0
							}
						}
					}
				}
			}
		}
	}
	JOINT RightUpLeg_virtual
	{
		OFFSET 0.000000 0.000000 0.000000
		CHANNELS 3 Xrotation Yrotation Zrotation
		JOINT RightUpLeg
		{
			OFFSET -15.569500 -6.655098 0.678600
			CHANNELS 3 Xrotation Yrotation Zrotation
			JOINT RightLeg
			{
				OFFSET -4.081825 -39.591045 13.023800
				CHANNELS 3 Xrotation Yrotation Zrotation
				JOINT RightFoot
				{
					OFFSET 4.081824 -37.707954 -15.979600
					CHANNELS 3 Xrotation Yrotation Zrotation
					JOINT RightToeBase
					{
						OFFSET -5.346400 -15.068900 20.645000
						CHANNELS 3 Xrotation Yrotation Zrotation
						JOINT RightToe_End
						{
							OFFSET -2.754700 0.931300 11.300900
							CHANNELS 3 Xrotation Yrotation Zrotation
							End Site
							{
								OFFSET 0 0 0
							}
						}
					}
				}
			}
		}
	}
	JOINT Spine_virtual
	{
		OFFSET 0.000000 0.000000 0.000000
		CHANNELS 3 Xrotation Yrotation Zrotation
		JOINT Spine
		{
			OFFSET -0.279200 12.230698 -2.892100
			CHANNELS 3 Xrotation Yrotation Zrotation
			JOINT Spine1
			{
				OFFSET -0.232667 10.192268 -1.242267
				CHANNELS 3 Xrotation Yrotation Zrotation
				JOINT Spine1_split
				{
					OFFSET -0.232667 10.192268 -1.242267
					CHANNELS 3 Xrotation Yrotation Zrotation
					JOINT Spine2
					{
						OFFSET -0.232667 10.192268 -1.242267
						CHANNELS 3 Xrotation Yrotation Zrotation
						JOINT Neck_virtual
						{
							OFFSET 0.000000 0.000000 0.000000
							CHANNELS 3 Xrotation Yrotation Zrotation
							JOINT Neck
							{
								OFFSET -0.418800 17.814194 8.416900
								CHANNELS 3 Xrotation Yrotation Zrotation
								JOINT Head
								{
									OFFSET 0.000000 7.031097 3.806800
									CHANNELS 3 Xrotation Yrotation Zrotation
									JOINT HeadTop_End
									{
										OFFSET 0.000000 24.646606 12.978600
										CHANNELS 3 Xrotation Yrotation Zrotation
										End Site
										{
											OFFSET 0 0 0
										}
									}
								}
							}
						}
						JOINT LeftShoulder_virtual
						{
							OFFSET 0.000000 0.000000 0.000000
							CHANNELS 3 Xrotation Yrotation Zrotation
							JOINT LeftShoulder
							{
								OFFSET 8.476499 7.247704 -3.868750
								CHANNELS 3 Xrotation Yrotation Zrotation
								JOINT LeftShoulder_split
								{
									OFFSET 8.476499 7.247704 -3.868750
									CHANNELS 3 Xrotation Yrotation Zrotation
									JOINT LeftArm
									{
										OFFSET 9.308998 -2.777710 0.208600
										CHANNELS 3 Xrotation Yrotation Zrotation
										JOINT LeftForeArm
										{
											OFFSET 29.972298 0.000000 0.000000
											CHANNELS 3 Xrotation Yrotation Zrotation
											JOINT LeftHand
											{
												OFFSET 26.026505 0.000000 0.000000
												CHANNELS 3 Xrotation Yrotation Zrotation
												End Site
												{
													OFFSET 0 0 0
												}
											}
										}
									}
								}
							}
						}
						JOINT RightShoulder_virtual
						{
							OFFSET 0.000000 0.000000 0.000000
							CHANNELS 3 Xrotation Yrotation Zrotation
							JOINT RightShoulder
							{
								OFFSET -7.570500 7.247704 -3.868750
								CHANNELS 3 Xrotation Yrotation Zrotation
								JOINT RightShoulder_split
								{
									OFFSET -7.570500 7.247704 -3.868750
									CHANNELS 3 Xrotation Yrotation Zrotation
									JOINT RightArm
									{
										OFFSET -9.308998 -2.777710 0.208500
										CHANNELS 3 Xrotation Yrotation Zrotation
										JOINT RightForeArm
										{
											OFFSET -29.972300 0.000000 0.000000
											CHANNELS 3 Xrotation Yrotation Zrotation
											JOINT RightHand
											{
												OFFSET -26.026505 0.000000 0.000000
												CHANNELS 3 Xrotation Yrotation Zrotation
												End Site
												{
													OFFSET 0 0 0
												}
											}
										}
									}
								}
							}
						}
					}
				}
			}
		}
	}
}
MOTION
Frames: 8
Frame Time: 0.03333333
18.115246 54.432190 -51.624794 0.000000 0.000000 0.000000 39.582292 -18.494347 12.927676 -53.522199 -13.893763 0.741485 80.848949 -4.049468 -2.779444 -0.280722 3.677799 -17.668081 -39.832710 2.098278 -18.004529 0.000000 0.000000 0.000000 41.299214 -22.391694 13.407766 -73.023451 -12.681292 -18.070039 93.706958 -9.489989 2.587832 -35.785909 -25.701638 10.195065 -21.161412 12.214401 -13.544071 0.000000 0.000000 0.000000 43.951936 -16.507488 13.647594 35.972895 8.664528 4.886863 2.170567 1.235246 0.847157 0.093375 -0.122502 0.176468 0.000000 0.000000 0.000000 4.417907 2.785848 1.814169 -14.314562 2.822521 7.651087 -24.733597 -30.658923 -25.590146 0.000000 0.000000 0.000000 4.396146 1.437090 0.361792 3.044889 -22.466458 -0.270346 3.467945 2.170939 -6.718002 -25.419212 -19.906824 -48.650894 -9.494396 -32.626236 0.477344 0.000000 0.000000 0.000000 6.043040 2.102888 1.950996 2.026179 22.447635 2.523753 0.333836 -0.165801 -0.671040 -60.161809 38.744125 38.441992 -33.818818 15.158094 14.492596 0.000000 0.000000 0.000000 
18.416218 54.806541 -50.970306 0.000000 0.000000 0.000000 38.778918 -19.982629 13.404125 -57.195529 -15.162265 0.308194 84.279378 -3.546508 -2.487715 2.805350 4.439138 -18.581215 -38.326657 2.345145 -18.561847 0.000000 0.000000 0.000000 40.494416 -24.088298 13.948875 -71.717608 -13.387628 -17.156419 92.847256 -9.531551 1.671691 -35.744070 -26.485237 10.973935 -21.101291 12.100484 -12.600935 0.000000 0.000000 0.000000 43.260970 -17.962605 13.975200 36.002887 8.740582 4.441123 2.580219 1.177383 0.553572 0.107002 -0.190614 0.197275 0.000000 0.000000 0.000000 4.645169 2.732687 1.515151 -14.212501 3.006710 7.548722 -24.866157 -30.099667 -24.802213 0.000000 0.000000 0.000000 4.655661 1.359033 0.000748 3.085696 -23.130253 -0.516831 2.550998 2.116443 -6.902588 -23.093081 -17.586057 -47.587635 -11.460275 -35.579548 -0.855296 0.000000 0.000000 0.000000 6.216374 2.027861 1.678897 1.931490 21.760481 2.373548 -0.178695 -0.272783 -0.378942 -57.747105 38.750867 38.757830 -34.526531 16.579183 16.047236 0.000000 0.000000 0.000000 
18.678745 55.230362 -50.043221 0.000000 0.000000 0.000000 38.071403 -21.193906 13.921273 -60.820874 -16.188653 -0.017046 87.192194 -3.189575 -1.915924 5.629027 4.782446 -19.660157 -37.278971 2.491975 -18.863179 0.000000 0.000000 0.000000 39.912651 -25.687008 14.700625 -70.441483 -14.098577 -16.351063 91.875033 -9.472990 0.583125 -35.999728 -27.337129 11.748446 -20.425896 12.009973 -11.821569 0.000000 0.000000 0.000000 42.725084 -19.154822 14.383593 35.922396 8.806618 3.969699 3.020689 1.178778 0.265483 0.103878 -0.277483 0.213958 0.000000 0.000000 0.000000 5.010718 2.750022 1.201884 -14.117616 3.317276 7.439078 -25.402520 -29.134510 -24.016601 0.000000 0.000000 0.000000 4.958685 1.339134 -0.342499 3.058765 -23.836187 -0.864762 1.687463 1.922076 -6.798880 -21.239494 -15.420148 -46.138795 -13.100628 -38.145473 -2.086121 0.000000 0.000000 0.000000 6.471959 2.005877 1.401575 1.950280 21.006614 1.918707 -0.737580 -0.447244 -0.195586 -55.046567 39.145832 38.473663 -35.320343 18.413439 17.961367 0.000000 0.000000 0.000000 
18.910984 55.735691 -48.864372 0.000000 0.000000 0.000000 37.495164 -22.108761 14.444076 -64.482047 -16.929339 0.035613 89.647565 -3.039560 -1.168091 8.052755 4.836979 -20.774632 -36.268359 2.529660 -19.001909 0.000000 0.000000 0.000000 39.612088 -27.078464 15.580824 -69.148091 -14.760590 -15.690632 90.753243 -9.192629 -0.656846 -36.273454 -28.256706 12.830911 -19.396159 11.948431 -11.161356 0.000000 0.000000 0.000000 42.271180 -20.035189 14.847341 35.736233 8.832244 3.519588 3.475623 1.239114 -0.009253 0.105815 -0.377692 0.211195 0.000000 0.000000 0.000000 5.483035 2.830658 0.889722 -13.972269 3.711308 7.335071 -26.415461 -27.844364 -23.305181 0.000000 0.000000 0.000000 5.274968 1.377278 -0.656965 2.983921 -24.563613 -1.242555 0.919560 1.719891 -6.555015 -19.844181 -13.514272 -44.287824 -14.302595 -40.346522 -3.097791 0.000000 0.000000 0.000000 6.786965 2.031767 1.128558 2.077633 20.169330 1.185026 -1.417351 -0.689255 0.031248 -52.359243 39.919621 37.711220 -36.092533 20.267504 20.031456 0.000000 0.000000 0.000000 
19.136772 56.430573 -47.396706 0.000000 0.000000 0.000000 37.157862 -22.820268 14.989400 -68.183668 -17.559549 0.582233 91.595685 -3.083672 -0.400806 10.177802 4.749763 -21.895534 -35.008227 2.495237 -19.050236 0.000000 0.000000 0.000000 39.498530 -28.118847 16.475294 -67.589633 -15.323277 -15.100199 89.394950 -8.711194 -2.023934 -36.586830 -29.328136 14.215471 -18.011518 11.842548 -10.547247 0.000000 0.000000 0.000000 41.863411 -20.668694 15.372560 35.509047 8.778134 3.112821 3.916522 1.330445 -0.262344 0.112099 -0.458922 0.201242 0.000000 0.000000 0.000000 6.020608 2.936993 0.579856 -13.752178 4.155481 7.256887 -27.877193 -26.382871 -22.674983 0.000000 0.000000 0.000000 5.592004 1.446118 -0.925516 2.900659 -25.287087 -1.550469 0.388065 1.596875 -6.182994 -18.852125 -11.941319 -42.089152 -15.009083 -42.386682 -3.851898 0.000000 0.000000 0.000000 7.116786 2.070749 0.871390 2.266075 19.180025 0.187054 -2.002655 -0.895006 0.316371 -50.174624 40.989997 36.872257 -36.747797 21.949662 22.077306 0.000000 0.000000 0.000000 
19.354403 57.340088 -45.661942 0.000000 0.000000 0.000000 36.988780 -23.377116 15.500045 -71.886266 -18.227598 1.606907 93.086210 -3.170832 0.351451 12.134765 4.830386 -23.006652 -33.363268 2.390740 -18.981171 0.000000 0.000000 0.000000 39.398433 -28.623813 17.155186 -65.467309 -15.791114 -14.463605 87.714826 -8.156869 -3.460294 -37.318385 -30.639846 15.477391 -16.226800 11.634554 -9.875507 0.000000 0.000000 0.000000 41.382836 -21.112702 15.901927 35.317573 8.580532 2.796166 4.318068 1.409988 -0.485626 0.133766 -0.505737 0.198479 0.000000 0.000000 0.000000 6.584795 3.020857 0.282313 -13.412825 4.605958 7.221758 -29.623893 -24.972094 -22.080420 0.000000 0.000000 0.000000 5.898396 1.509719 -1.137990 2.827965 -25.958947 -1.732427 0.131172 1.568586 -5.748797 -18.310347 -10.857257 -39.653865 -15.222345 -44.445882 -4.331946 0.000000 0.000000 0.000000 7.426756 2.084214 0.629158 2.466549 18.021770 -1.049474 -2.449058 -0.962709 0.586144 -49.108517 42.101563 36.525949 -37.231136 23.387637 23.970974 0.000000 0.000000 0.000000 
19.496298 58.473991 -43.665169 0.000000 0.000000 0.000000 36.949373 -23.852122 15.996288 -75.258706 -18.869733 2.971864 93.936466 -3.024091 1.044435 13.701978 5.355290 -23.871789 -31.192449 2.153868 -18.762244 0.000000 0.000000 0.000000 39.166719 -28.663196 17.555700 -62.598650 -16.217226 -13.743696 85.668747 -7.682920 -4.836162 -38.703697 -32.189486 16.155337 -14.212380 11.311331 -9.040409 0.000000 0.000000 0.000000 40.804892 -21.468246 16.420900 35.232397 8.181112 2.575997 4.682597 1.443925 -0.694017 0.141880 -0.506111 0.210829 0.000000 0.000000 0.000000 7.123361 3.048644 -0.004964 -12.869004 5.035936 7.222216 -31.353731 -23.902981 -21.413565 0.000000 0.000000 0.000000 6.199282 1.529761 -1.303122 2.776238 -26.509458 -1.757108 -0.028072 1.581247 -5.466988 -18.210703 -10.334463 -37.075797 -14.926598 -46.515081 -4.489696 0.000000 0.000000 0.000000 7.695653 2.038875 0.382910 2.622813 16.693776 -2.517872 -2.691404 -0.796558 0.810468 -49.438740 43.085287 37.077190 -37.481749 24.644171 25.611416 0.000000 0.000000 0.000000 
19.574100 59.822666 -41.420952 0.000000 0.000000 0.000000 36.835138 -24.193384 16.447854 -78.081261 -19.342607 4.551982 93.801399 -2.612411 1.801241 14.797765 6.227884 -24.636030 -28.821435 1.744891 -18.143166 0.000000 0.000000 0.000000 38.674584 -28.321677 17.704940 -59.025853 -16.555226 -13.042910 83.212475 -7.289507 -6.065569 -40.661892 -33.830197 16.063896 -12.068039 10.908725 -8.062395 0.000000 0.000000 0.000000 40.127006 -21.751922 16.931132 35.303192 7.528322 2.433999 5.004836 1.417394 -0.904301 0.127328 -0.478134 0.206987 0.000000 0.000000 0.000000 7.629451 3.010649 -0.295889 -12.105144 5.424241 7.222450 -32.909696 -23.368041 -20.637130 0.000000 0.000000 0.000000 6.502946 1.493790 -1.447415 2.752324 -26.893648 -1.621388 -0.132908 1.562001 -5.250371 -18.637131 -10.493768 -34.400965 -14.065818 -48.261481 -4.218838 0.000000 0.000000 0.000000 7.929859 1.931149 0.121367 2.714277 15.268960 -4.226448 -2.700760 -0.479597 0.692288 -51.183662 43.664067 38.626830 -37.495068 25.817169 26.960451 0.000000 0.000000 0.000000 
